<svg width="16" height="16" viewBox="0 0 16 16" fill="none" xmlns="http://www.w3.org/2000/svg">
<path d="M15.1051 0.276642H0.894231C0.552475 0.276642 0.276367 0.55275 0.276367 0.894505V15.1054C0.276367 15.4471 0.552475 15.7232 0.894231 15.7232H15.1051C15.4468 15.7232 15.723 15.4471 15.723 15.1054V0.894505C15.723 0.55275 15.4468 0.276642 15.1051 0.276642ZM13.321 4.78511H12.0872C11.1199 4.78511 10.9326 5.24465 10.9326 5.92044V7.4091H13.2418L12.9406 9.7396H10.9326V15.7232H8.52484V9.74154H6.51099V7.4091H8.52484V5.69067C8.52484 3.69613 9.74319 2.60908 11.5234 2.60908C12.3768 2.60908 13.1086 2.67279 13.3229 2.70176V4.78511H13.321Z" fill="white"/>
</svg>
