<svg width="65" height="66" viewBox="0 0 65 66" fill="none" xmlns="http://www.w3.org/2000/svg">
<circle cx="32.5" cy="32.7344" r="32.5" fill="#0156FF"/>
<g clip-path="url(#clip0_962_1809)">
<path d="M35.82 44.8826L33 47.7026L30.18 44.8826C24.6375 43.6026 20.5 38.6326 20.5 32.7026C20.5 25.8026 26.1 20.2026 33 20.2026C39.9 20.2026 45.5 25.8026 45.5 32.7026C45.5 38.6326 41.3625 43.6026 35.82 44.8826ZM25.5287 36.9726C27.3637 39.7101 30.1187 41.4526 33.2 41.4526C36.28 41.4526 39.0362 39.7114 40.87 36.9726C38.7897 35.0284 36.0474 33.9486 33.2 33.9526C30.3521 33.9483 27.6094 35.0281 25.5287 36.9726ZM33 31.4526C33.9946 31.4526 34.9484 31.0575 35.6517 30.3543C36.3549 29.651 36.75 28.6972 36.75 27.7026C36.75 26.7081 36.3549 25.7542 35.6517 25.051C34.9484 24.3477 33.9946 23.9526 33 23.9526C32.0054 23.9526 31.0516 24.3477 30.3483 25.051C29.6451 25.7542 29.25 26.7081 29.25 27.7026C29.25 28.6972 29.6451 29.651 30.3483 30.3543C31.0516 31.0575 32.0054 31.4526 33 31.4526Z" fill="white"/>
</g>
<defs>
<clipPath id="clip0_962_1809">
<rect width="30" height="30" fill="white" transform="translate(18 17.7026)"/>
</clipPath>
</defs>
</svg>
