<svg width="65" height="66" viewBox="0 0 65 66" fill="none" xmlns="http://www.w3.org/2000/svg">
<circle cx="32.5" cy="32.7344" r="32.5" fill="#0156FF"/>
<g clip-path="url(#clip0_962_1833)">
<path d="M45.2047 21.2293C45.1293 21.0414 44.9844 20.8899 44.8001 20.8062C44.6158 20.7225 44.4063 20.7131 44.2152 20.7799C44.0242 20.8467 43.8662 20.9846 43.7742 21.1649C43.6823 21.3453 43.6633 21.5541 43.7214 21.748C44.9291 25.219 42.5319 27.8112 40.7041 29.1996L39.9657 28.1414C39.7174 27.7865 39.1623 27.4914 38.7307 27.4862L34.5863 27.5044C34.08 27.5197 33.5873 27.6715 33.1602 27.9438L20.948 36.5069C20.6639 36.7068 20.4707 37.0111 20.4105 37.3532C20.3503 37.6953 20.4281 38.0472 20.6269 38.3321L26.1766 46.2725C26.5926 46.864 27.2569 46.7925 27.8497 46.3791L40.0619 37.8147C40.4129 37.5664 40.8185 37.0308 40.9615 36.6213L42.2589 32.5328C42.4019 32.1246 42.3148 31.5019 42.0665 31.147L41.6167 30.5022C44.0711 28.6211 46.6191 25.297 45.2047 21.2293ZM39.5224 33.3947C39.2974 33.5522 39.0436 33.6638 38.7755 33.7231C38.5074 33.7825 38.2302 33.7884 37.9597 33.7406C37.6893 33.6928 37.431 33.5922 37.1994 33.4445C36.9679 33.2968 36.7678 33.105 36.6104 32.8799C36.2918 32.4244 36.1669 31.8612 36.2632 31.3138C36.3595 30.7664 36.669 30.2795 37.1239 29.9601C37.4805 29.7102 37.9063 29.5781 38.3416 29.582C38.777 29.586 39.2003 29.7259 39.5523 29.9822C39.1987 30.1954 38.9556 30.3202 38.9101 30.3397C38.749 30.4165 38.6187 30.5458 38.5406 30.7064C38.4626 30.8669 38.4414 31.0493 38.4805 31.2234C38.5196 31.3976 38.6168 31.5534 38.756 31.6651C38.8952 31.7769 39.0683 31.838 39.2468 31.8386C39.3586 31.8386 39.473 31.8126 39.5809 31.7619C39.8331 31.6423 40.1035 31.5006 40.3856 31.3329C40.4505 31.723 40.4039 32.1234 40.2512 32.4882C40.0985 32.853 39.8459 33.1672 39.5224 33.3947Z" fill="white"/>
</g>
<defs>
<clipPath id="clip0_962_1833">
<rect width="26" height="26" fill="white" transform="translate(20 20.7026)"/>
</clipPath>
</defs>
</svg>
